# xmcd CD database file generated by OrangeCD 4.3
#
# Track frame offsets:
#	150
#	15965
#	35183
#	52737
#	69661
#	83331
#	103913
#	122982
#	142251
#	156277
#	169117
#	187809
#	205804
#
# Disc length: 2912 seconds
#
# Revision: 0
# Processed by: cddbd v1.4PL0 Copyright (c) Steve Scherf et al.
# Submitted via: OrangeCD 4.3
#
DISCID=ad0b5e0d
DTITLE=Δημήτρης Παναγόπουλος and AURA - Been In The Blues So Long
DYEAR=1900
DGENRE=Blues
TTITLE0=Key to the highway
TTITLE1=Crawling king snake
TTITLE2=Heard it through the grapevine
TTITLE3=Ramblin' on my mind
TTITLE4=See you around
TTITLE5=You'll be mine
TTITLE6=Roadhouse blues
TTITLE7=Goin' slow down
TTITLE8=Proud Mary
TTITLE9=Ridin' in the moonlight
TTITLE10=Got my mojo working
TTITLE11=Little rain
TTITLE12=Key to the highway 2
EXTD=
EXTT0=
EXTT1=
EXTT2=
EXTT3=
EXTT4=
EXTT5=
EXTT6=
EXTT7=
EXTT8=
EXTT9=
EXTT10=
EXTT11=
EXTT12=
PLAYORDER=
